<mxfile host="app.diagrams.net" agent="Mozilla/5.0 (Macintosh; Intel Mac OS X 10_15_7) AppleWebKit/537.36 (KHTML, like Gecko) Chrome/130.0.0.0 Safari/537.36" version="24.8.3">
  <diagram name="第 1 页" id="0Np0syzPPzEjY32for8N">
    <mxGraphModel dx="2069" dy="868" grid="1" gridSize="10" guides="1" tooltips="1" connect="1" arrows="1" fold="1" page="1" pageScale="1" pageWidth="827" pageHeight="1169" math="0" shadow="0">
      <root>
        <mxCell id="0" />
        <mxCell id="1" parent="0" />
        <mxCell id="34ZQ5wmHYcVvmNUhHAbt-17" style="edgeStyle=orthogonalEdgeStyle;rounded=0;orthogonalLoop=1;jettySize=auto;html=1;entryX=0.5;entryY=0;entryDx=0;entryDy=0;" parent="1" source="34ZQ5wmHYcVvmNUhHAbt-13" target="34ZQ5wmHYcVvmNUhHAbt-16" edge="1">
          <mxGeometry relative="1" as="geometry" />
        </mxCell>
        <mxCell id="34ZQ5wmHYcVvmNUhHAbt-20" style="edgeStyle=orthogonalEdgeStyle;rounded=0;orthogonalLoop=1;jettySize=auto;html=1;entryX=0.5;entryY=0;entryDx=0;entryDy=0;exitX=0.585;exitY=1;exitDx=0;exitDy=0;exitPerimeter=0;" parent="1" source="34ZQ5wmHYcVvmNUhHAbt-13" target="34ZQ5wmHYcVvmNUhHAbt-19" edge="1">
          <mxGeometry relative="1" as="geometry">
            <mxPoint x="1140" y="440" as="targetPoint" />
            <Array as="points">
              <mxPoint x="264" y="410" />
              <mxPoint x="1160" y="410" />
            </Array>
          </mxGeometry>
        </mxCell>
        <mxCell id="34ZQ5wmHYcVvmNUhHAbt-13" value="&lt;div style=&quot;text-align: center;&quot;&gt;&lt;span style=&quot;background-color: initial;&quot;&gt;运单发货地址解析&lt;/span&gt;&lt;/div&gt;&lt;div&gt;任务id：&lt;span style=&quot;background-color: rgb(240, 247, 255); color: rgba(29, 33, 41, 0.65); font-family: -apple-system, &amp;quot;system-ui&amp;quot;, &amp;quot;Segoe UI&amp;quot;, &amp;quot;PingFang SC&amp;quot;, &amp;quot;Hiragino Sans GB&amp;quot;, &amp;quot;Microsoft YaHei&amp;quot;, &amp;quot;Helvetica Neue&amp;quot;, Helvetica, Arial, sans-serif, &amp;quot;Apple Color Emoji&amp;quot;, &amp;quot;Segoe UI Emoji&amp;quot;, &amp;quot;Segoe UI Symbol&amp;quot;; text-wrap-mode: nowrap;&quot;&gt;1555490&lt;/span&gt;&lt;/div&gt;&lt;div&gt;任务名称：&lt;a style=&quot;text-wrap-mode: nowrap; box-sizing: border-box; background-color: rgba(29, 33, 41, 0.02); cursor: pointer; transition: color 0.3s; touch-action: manipulation; font-family: -apple-system, &amp;quot;system-ui&amp;quot;, &amp;quot;Segoe UI&amp;quot;, &amp;quot;PingFang SC&amp;quot;, &amp;quot;Hiragino Sans GB&amp;quot;, &amp;quot;Microsoft YaHei&amp;quot;, &amp;quot;Helvetica Neue&amp;quot;, Helvetica, Arial, sans-serif, &amp;quot;Apple Color Emoji&amp;quot;, &amp;quot;Segoe UI Emoji&amp;quot;, &amp;quot;Segoe UI Symbol&amp;quot;; line-height: inherit; outline: 0px; text-decoration-line: none; padding-left: 0px; vertical-align: baseline; user-select: unset; padding-top: 0px !important; padding-right: 0px !important; padding-bottom: 0px !important;&quot; class=&quot;jmd__common-table-button--link&quot; title=&quot;exe_app_gis_boai_address_gis_aoi_sum_d&quot; target=&quot;_blank&quot; href=&quot;http://dp.jd.com/buffalo/task/detail?env=prod&amp;amp;taskId=1555490&quot;&gt;exe_app_gis_boai_address_gis_aoi_sum_d&lt;/a&gt;&lt;/div&gt;&lt;div&gt;目的表：&lt;span style=&quot;color: rgb(96, 139, 78); font-family: Menlo, Monaco, &amp;quot;Courier New&amp;quot;, monospace; white-space: pre;&quot;&gt;app.app_gis_boai_address_gis_aoi_sum_d&lt;/span&gt;&lt;/div&gt;" style="rounded=1;whiteSpace=wrap;html=1;fontSize=14;align=left;spacingLeft=12;" parent="1" vertex="1">
          <mxGeometry x="30" y="250" width="400" height="80" as="geometry" />
        </mxCell>
        <mxCell id="34ZQ5wmHYcVvmNUhHAbt-22" style="edgeStyle=orthogonalEdgeStyle;rounded=0;orthogonalLoop=1;jettySize=auto;html=1;" parent="1" source="34ZQ5wmHYcVvmNUhHAbt-14" edge="1">
          <mxGeometry relative="1" as="geometry">
            <mxPoint x="1160" y="640" as="targetPoint" />
            <Array as="points">
              <mxPoint x="1275" y="510" />
              <mxPoint x="1160" y="510" />
            </Array>
          </mxGeometry>
        </mxCell>
        <mxCell id="34ZQ5wmHYcVvmNUhHAbt-14" value="&lt;div style=&quot;text-align: center;&quot;&gt;&lt;span style=&quot;background-color: initial;&quot;&gt;CRM办公地址、注册地址解析&lt;/span&gt;&lt;/div&gt;&lt;div&gt;任务id：&lt;span style=&quot;background-color: rgba(29, 33, 41, 0.02); color: rgba(29, 33, 41, 0.65); font-family: -apple-system, &amp;quot;system-ui&amp;quot;, &amp;quot;Segoe UI&amp;quot;, &amp;quot;PingFang SC&amp;quot;, &amp;quot;Hiragino Sans GB&amp;quot;, &amp;quot;Microsoft YaHei&amp;quot;, &amp;quot;Helvetica Neue&amp;quot;, Helvetica, Arial, sans-serif, &amp;quot;Apple Color Emoji&amp;quot;, &amp;quot;Segoe UI Emoji&amp;quot;, &amp;quot;Segoe UI Symbol&amp;quot;; text-wrap-mode: nowrap;&quot;&gt;1566458&lt;/span&gt;&lt;/div&gt;&lt;div&gt;任务名称：&lt;a style=&quot;text-wrap-mode: nowrap; box-sizing: border-box; background-color: rgba(29, 33, 41, 0.02); cursor: pointer; transition: color 0.3s; touch-action: manipulation; font-family: -apple-system, &amp;quot;system-ui&amp;quot;, &amp;quot;Segoe UI&amp;quot;, &amp;quot;PingFang SC&amp;quot;, &amp;quot;Hiragino Sans GB&amp;quot;, &amp;quot;Microsoft YaHei&amp;quot;, &amp;quot;Helvetica Neue&amp;quot;, Helvetica, Arial, sans-serif, &amp;quot;Apple Color Emoji&amp;quot;, &amp;quot;Segoe UI Emoji&amp;quot;, &amp;quot;Segoe UI Symbol&amp;quot;; line-height: inherit; outline: 0px; text-decoration-line: none; padding-left: 0px; vertical-align: baseline; user-select: unset; padding-top: 0px !important; padding-right: 0px !important; padding-bottom: 0px !important;&quot; class=&quot;jmd__common-table-button--link&quot; title=&quot;exe_app_cust_boai_crm_address_geo_aoi_fence_det_d&quot; target=&quot;_blank&quot; href=&quot;http://dp.jd.com/buffalo/task/detail?env=prod&amp;amp;taskId=1566458&quot;&gt;exe_app_cust_boai_crm_address_geo_aoi_fence_det_d&lt;/a&gt;&lt;/div&gt;&lt;div&gt;目的表：app.&lt;span style=&quot;color: rgb(206, 145, 120); font-family: Menlo, Monaco, &amp;quot;Courier New&amp;quot;, monospace; white-space: pre;&quot;&gt;app_cust_boai_crm_address_geo_aoi_fence_det_d&lt;/span&gt;&lt;/div&gt;" style="rounded=1;whiteSpace=wrap;html=1;fontSize=14;align=left;spacingLeft=12;" parent="1" vertex="1">
          <mxGeometry x="1030" y="250" width="490" height="80" as="geometry" />
        </mxCell>
        <mxCell id="34ZQ5wmHYcVvmNUhHAbt-18" style="edgeStyle=orthogonalEdgeStyle;rounded=0;orthogonalLoop=1;jettySize=auto;html=1;" parent="1" source="34ZQ5wmHYcVvmNUhHAbt-15" edge="1">
          <mxGeometry relative="1" as="geometry">
            <mxPoint x="230" y="650" as="targetPoint" />
            <Array as="points">
              <mxPoint x="700" y="385" />
              <mxPoint x="230" y="385" />
            </Array>
          </mxGeometry>
        </mxCell>
        <mxCell id="34ZQ5wmHYcVvmNUhHAbt-21" style="edgeStyle=orthogonalEdgeStyle;rounded=0;orthogonalLoop=1;jettySize=auto;html=1;" parent="1" source="34ZQ5wmHYcVvmNUhHAbt-15" edge="1">
          <mxGeometry relative="1" as="geometry">
            <mxPoint x="1160" y="650" as="targetPoint" />
            <Array as="points">
              <mxPoint x="700" y="510" />
              <mxPoint x="1160" y="510" />
            </Array>
          </mxGeometry>
        </mxCell>
        <mxCell id="34ZQ5wmHYcVvmNUhHAbt-15" value="&lt;div style=&quot;text-align: center;&quot;&gt;&lt;div style=&quot;color: rgb(212, 212, 212); font-family: Menlo, Monaco, &amp;quot;Courier New&amp;quot;, monospace; line-height: 21px; white-space: pre;&quot;&gt;&lt;span style=&quot;color: rgb(96, 139, 78);&quot;&gt;快递快运运单数据&lt;/span&gt;&lt;/div&gt;&lt;/div&gt;&lt;div&gt;任务id：&lt;span style=&quot;background-color: rgb(240, 247, 255); color: rgba(29, 33, 41, 0.65); font-family: -apple-system, &amp;quot;system-ui&amp;quot;, &amp;quot;Segoe UI&amp;quot;, &amp;quot;PingFang SC&amp;quot;, &amp;quot;Hiragino Sans GB&amp;quot;, &amp;quot;Microsoft YaHei&amp;quot;, &amp;quot;Helvetica Neue&amp;quot;, Helvetica, Arial, sans-serif, &amp;quot;Apple Color Emoji&amp;quot;, &amp;quot;Segoe UI Emoji&amp;quot;, &amp;quot;Segoe UI Symbol&amp;quot;; text-wrap-mode: nowrap;&quot;&gt;1600761&lt;/span&gt;&lt;/div&gt;&lt;div&gt;任务名称：&lt;a style=&quot;text-wrap-mode: nowrap; box-sizing: border-box; background-color: rgba(29, 33, 41, 0.02); cursor: pointer; transition: color 0.3s; touch-action: manipulation; font-family: -apple-system, &amp;quot;system-ui&amp;quot;, &amp;quot;Segoe UI&amp;quot;, &amp;quot;PingFang SC&amp;quot;, &amp;quot;Hiragino Sans GB&amp;quot;, &amp;quot;Microsoft YaHei&amp;quot;, &amp;quot;Helvetica Neue&amp;quot;, Helvetica, Arial, sans-serif, &amp;quot;Apple Color Emoji&amp;quot;, &amp;quot;Segoe UI Emoji&amp;quot;, &amp;quot;Segoe UI Symbol&amp;quot;; line-height: inherit; outline: 0px; text-decoration-line: none; padding-left: 0px; vertical-align: baseline; user-select: unset; padding-top: 0px !important; padding-right: 0px !important; padding-bottom: 0px !important;&quot; class=&quot;jmd__common-table-button--link&quot; title=&quot;exe_app_cust_boai_sales100_kk_waybill_det_d&quot; target=&quot;_blank&quot; href=&quot;http://dp.jd.com/buffalo/task/detail?env=prod&amp;amp;taskId=1600761&quot;&gt;exe_app_cust_boai_sales100_kk_waybill_det_d&lt;/a&gt;&lt;/div&gt;&lt;div&gt;目的表：&lt;span style=&quot;color: rgb(96, 139, 78); font-family: Menlo, Monaco, &amp;quot;Courier New&amp;quot;, monospace; white-space: pre;&quot;&gt;app.&lt;/span&gt;&lt;span style=&quot;color: rgb(206, 145, 120); font-family: Menlo, Monaco, &amp;quot;Courier New&amp;quot;, monospace; white-space: pre; background-color: rgb(255, 255, 255);&quot;&gt;app_cust_boai_sales100_kk_waybill_det_d&lt;/span&gt;&lt;/div&gt;" style="rounded=1;whiteSpace=wrap;html=1;fontSize=14;align=left;spacingLeft=12;" parent="1" vertex="1">
          <mxGeometry x="480" y="250" width="440" height="80" as="geometry" />
        </mxCell>
        <mxCell id="34ZQ5wmHYcVvmNUhHAbt-25" style="edgeStyle=orthogonalEdgeStyle;rounded=0;orthogonalLoop=1;jettySize=auto;html=1;entryX=0.5;entryY=0;entryDx=0;entryDy=0;" parent="1" source="34ZQ5wmHYcVvmNUhHAbt-16" target="34ZQ5wmHYcVvmNUhHAbt-24" edge="1">
          <mxGeometry relative="1" as="geometry" />
        </mxCell>
        <mxCell id="34ZQ5wmHYcVvmNUhHAbt-16" value="&lt;div style=&quot;text-align: center;&quot;&gt;&lt;div style=&quot;color: rgb(212, 212, 212); font-family: Menlo, Monaco, &amp;quot;Courier New&amp;quot;, monospace; line-height: 21px; white-space: pre;&quot;&gt;&lt;span style=&quot;color: rgb(96, 139, 78);&quot;&gt;网格评分&lt;/span&gt;&lt;/div&gt;&lt;/div&gt;&lt;div&gt;任务id：&lt;span style=&quot;background-color: rgb(240, 247, 255); color: rgba(29, 33, 41, 0.65); font-family: -apple-system, &amp;quot;system-ui&amp;quot;, &amp;quot;Segoe UI&amp;quot;, &amp;quot;PingFang SC&amp;quot;, &amp;quot;Hiragino Sans GB&amp;quot;, &amp;quot;Microsoft YaHei&amp;quot;, &amp;quot;Helvetica Neue&amp;quot;, Helvetica, Arial, sans-serif, &amp;quot;Apple Color Emoji&amp;quot;, &amp;quot;Segoe UI Emoji&amp;quot;, &amp;quot;Segoe UI Symbol&amp;quot;; text-wrap-mode: nowrap;&quot;&gt;1598835&lt;/span&gt;&lt;/div&gt;&lt;div&gt;任务名称：&lt;a style=&quot;text-wrap-mode: nowrap; box-sizing: border-box; background-color: rgba(29, 33, 41, 0.02); cursor: pointer; transition: color 0.3s; touch-action: manipulation; font-family: -apple-system, &amp;quot;system-ui&amp;quot;, &amp;quot;Segoe UI&amp;quot;, &amp;quot;PingFang SC&amp;quot;, &amp;quot;Hiragino Sans GB&amp;quot;, &amp;quot;Microsoft YaHei&amp;quot;, &amp;quot;Helvetica Neue&amp;quot;, Helvetica, Arial, sans-serif, &amp;quot;Apple Color Emoji&amp;quot;, &amp;quot;Segoe UI Emoji&amp;quot;, &amp;quot;Segoe UI Symbol&amp;quot;; line-height: inherit; outline: 0px; text-decoration-line: none; padding-left: 0px; vertical-align: baseline; user-select: unset; padding-top: 0px !important; padding-right: 0px !important; padding-bottom: 0px !important;&quot; class=&quot;jmd__common-table-button--link&quot; title=&quot;exe_app_cust_boai_sales100_waybill_score_sum_d&quot; target=&quot;_blank&quot; href=&quot;http://dp.jd.com/buffalo/task/detail?env=prod&amp;amp;taskId=1598835&quot;&gt;exe_app_cust_boai_sales100_waybill_score_sum_d&lt;/a&gt;&lt;/div&gt;&lt;div&gt;目的表：&lt;/div&gt;&lt;div&gt;&lt;span style=&quot;color: rgb(96, 139, 78); font-family: Menlo, Monaco, &amp;quot;Courier New&amp;quot;, monospace; white-space: pre;&quot;&gt;1、app.&lt;/span&gt;&lt;span style=&quot;color: rgb(96, 139, 78); font-family: Menlo, Monaco, &amp;quot;Courier New&amp;quot;, monospace; white-space: pre;&quot;&gt;app_cust_boai_sales100_waybill_score_sum_d&lt;/span&gt;&lt;/div&gt;&lt;div&gt;&lt;div style=&quot;color: rgb(212, 212, 212); font-family: Menlo, Monaco, &amp;quot;Courier New&amp;quot;, monospace; line-height: 21px; white-space: pre;&quot;&gt;&lt;span style=&quot;color: rgb(206, 145, 120);&quot;&gt;2、app.app_cust_boai_sales100_waybill_score_result_sum_d&lt;/span&gt;&lt;/div&gt;&lt;/div&gt;" style="rounded=1;whiteSpace=wrap;html=1;fontSize=14;align=left;spacingLeft=12;" parent="1" vertex="1">
          <mxGeometry x="-20" y="660" width="500" height="140" as="geometry" />
        </mxCell>
        <mxCell id="34ZQ5wmHYcVvmNUhHAbt-19" value="&lt;div style=&quot;text-align: center;&quot;&gt;&lt;div style=&quot;font-family: Menlo, Monaco, &amp;quot;Courier New&amp;quot;, monospace; line-height: 21px; white-space: pre;&quot;&gt;&lt;font color=&quot;#cc0000&quot;&gt;地图档案&lt;/font&gt;&lt;/div&gt;&lt;/div&gt;&lt;div&gt;任务id：&lt;span style=&quot;background-color: rgb(240, 247, 255); color: rgba(29, 33, 41, 0.65); font-family: -apple-system, &amp;quot;system-ui&amp;quot;, &amp;quot;Segoe UI&amp;quot;, &amp;quot;PingFang SC&amp;quot;, &amp;quot;Hiragino Sans GB&amp;quot;, &amp;quot;Microsoft YaHei&amp;quot;, &amp;quot;Helvetica Neue&amp;quot;, Helvetica, Arial, sans-serif, &amp;quot;Apple Color Emoji&amp;quot;, &amp;quot;Segoe UI Emoji&amp;quot;, &amp;quot;Segoe UI Symbol&amp;quot;; text-wrap-mode: nowrap;&quot;&gt;1601348&lt;/span&gt;&lt;/div&gt;&lt;div&gt;任务名称：&lt;a style=&quot;text-wrap-mode: nowrap; box-sizing: border-box; background-color: rgb(240, 247, 255); cursor: pointer; transition: color 0.3s; touch-action: manipulation; font-family: -apple-system, &amp;quot;system-ui&amp;quot;, &amp;quot;Segoe UI&amp;quot;, &amp;quot;PingFang SC&amp;quot;, &amp;quot;Hiragino Sans GB&amp;quot;, &amp;quot;Microsoft YaHei&amp;quot;, &amp;quot;Helvetica Neue&amp;quot;, Helvetica, Arial, sans-serif, &amp;quot;Apple Color Emoji&amp;quot;, &amp;quot;Segoe UI Emoji&amp;quot;, &amp;quot;Segoe UI Symbol&amp;quot;; line-height: inherit; outline: 0px; text-decoration-line: none; padding-left: 0px; vertical-align: baseline; user-select: unset; padding-top: 0px !important; padding-right: 0px !important; padding-bottom: 0px !important;&quot; class=&quot;jmd__common-table-button--link&quot; title=&quot;exe_app_cust_boai_henan_waybill_address_geo_aoi_fence_det_d&quot; target=&quot;_blank&quot; href=&quot;http://dp.jd.com/buffalo/task/detail?env=prod&amp;amp;taskId=1601348&quot;&gt;exe_app_cust_boai_henan_waybill_address_geo_aoi_fence_det_d&lt;/a&gt;&lt;/div&gt;&lt;div&gt;目的表：&lt;span style=&quot;background-color: initial; color: rgb(96, 139, 78); font-family: Menlo, Monaco, &amp;quot;Courier New&amp;quot;, monospace; white-space: pre;&quot;&gt;app.&lt;/span&gt;&lt;span style=&quot;background-color: initial; color: rgb(96, 139, 78); font-family: Menlo, Monaco, &amp;quot;Courier New&amp;quot;, monospace; white-space: pre;&quot;&gt;app_cust_boai_henan_waybill_address_geo_aoi_fence_det_d&lt;/span&gt;&lt;/div&gt;" style="rounded=1;whiteSpace=wrap;html=1;fontSize=14;align=left;spacingLeft=12;" parent="1" vertex="1">
          <mxGeometry x="860" y="660" width="600" height="140" as="geometry" />
        </mxCell>
        <mxCell id="34ZQ5wmHYcVvmNUhHAbt-23" value="&lt;div style=&quot;text-align: center;&quot;&gt;&lt;div style=&quot;font-family: Menlo, Monaco, &amp;quot;Courier New&amp;quot;, monospace; line-height: 21px; white-space: pre;&quot;&gt;&lt;font color=&quot;#cc0000&quot;&gt;客户档案&lt;/font&gt;&lt;/div&gt;&lt;/div&gt;&lt;div&gt;任务id：&lt;span style=&quot;background-color: rgb(240, 247, 255); color: rgba(29, 33, 41, 0.65); font-family: -apple-system, &amp;quot;system-ui&amp;quot;, &amp;quot;Segoe UI&amp;quot;, &amp;quot;PingFang SC&amp;quot;, &amp;quot;Hiragino Sans GB&amp;quot;, &amp;quot;Microsoft YaHei&amp;quot;, &amp;quot;Helvetica Neue&amp;quot;, Helvetica, Arial, sans-serif, &amp;quot;Apple Color Emoji&amp;quot;, &amp;quot;Segoe UI Emoji&amp;quot;, &amp;quot;Segoe UI Symbol&amp;quot;; text-wrap-mode: nowrap;&quot;&gt;1597049&lt;/span&gt;&lt;/div&gt;&lt;div&gt;任务名称：&lt;a style=&quot;text-wrap-mode: nowrap; box-sizing: border-box; background-color: rgba(29, 33, 41, 0.02); cursor: pointer; transition: color 0.3s; touch-action: manipulation; font-family: -apple-system, &amp;quot;system-ui&amp;quot;, &amp;quot;Segoe UI&amp;quot;, &amp;quot;PingFang SC&amp;quot;, &amp;quot;Hiragino Sans GB&amp;quot;, &amp;quot;Microsoft YaHei&amp;quot;, &amp;quot;Helvetica Neue&amp;quot;, Helvetica, Arial, sans-serif, &amp;quot;Apple Color Emoji&amp;quot;, &amp;quot;Segoe UI Emoji&amp;quot;, &amp;quot;Segoe UI Symbol&amp;quot;; line-height: inherit; outline: 0px; text-decoration-line: none; padding-left: 0px; vertical-align: baseline; user-select: unset; padding-top: 0px !important; padding-right: 0px !important; padding-bottom: 0px !important;&quot; class=&quot;jmd__common-table-button--link&quot; title=&quot;exe_app_cust_boai_sales100_cust_archives_det_d&quot; target=&quot;_blank&quot; href=&quot;http://dp.jd.com/buffalo/task/detail?env=prod&amp;amp;taskId=1597049&quot;&gt;exe_app_cust_boai_sales100_cust_archives_det_d&lt;/a&gt;&lt;/div&gt;&lt;div&gt;目的表：&lt;span style=&quot;color: rgb(96, 139, 78); font-family: Menlo, Monaco, &amp;quot;Courier New&amp;quot;, monospace; white-space: pre; background-color: initial;&quot;&gt;app.app_cust_boai_sales100_cust_archives_det_d&lt;/span&gt;&lt;/div&gt;" style="rounded=1;whiteSpace=wrap;html=1;fontSize=14;align=left;spacingLeft=12;" parent="1" vertex="1">
          <mxGeometry x="1510" y="660" width="500" height="140" as="geometry" />
        </mxCell>
        <mxCell id="34ZQ5wmHYcVvmNUhHAbt-24" value="&lt;div style=&quot;text-align: center;&quot;&gt;&lt;div style=&quot;font-family: Menlo, Monaco, &amp;quot;Courier New&amp;quot;, monospace; line-height: 21px; white-space: pre;&quot;&gt;&lt;font color=&quot;#cc0000&quot;&gt;网格档案&lt;/font&gt;&lt;/div&gt;&lt;/div&gt;&lt;div&gt;任务id：&lt;span style=&quot;background-color: rgb(240, 247, 255); color: rgba(29, 33, 41, 0.65); font-family: -apple-system, &amp;quot;system-ui&amp;quot;, &amp;quot;Segoe UI&amp;quot;, &amp;quot;PingFang SC&amp;quot;, &amp;quot;Hiragino Sans GB&amp;quot;, &amp;quot;Microsoft YaHei&amp;quot;, &amp;quot;Helvetica Neue&amp;quot;, Helvetica, Arial, sans-serif, &amp;quot;Apple Color Emoji&amp;quot;, &amp;quot;Segoe UI Emoji&amp;quot;, &amp;quot;Segoe UI Symbol&amp;quot;; text-wrap-mode: nowrap;&quot;&gt;1596529&lt;/span&gt;&lt;/div&gt;&lt;div&gt;任务名称：&lt;a style=&quot;text-wrap-mode: nowrap; box-sizing: border-box; background-color: rgba(29, 33, 41, 0.02); cursor: pointer; transition: color 0.3s; touch-action: manipulation; font-family: -apple-system, &amp;quot;system-ui&amp;quot;, &amp;quot;Segoe UI&amp;quot;, &amp;quot;PingFang SC&amp;quot;, &amp;quot;Hiragino Sans GB&amp;quot;, &amp;quot;Microsoft YaHei&amp;quot;, &amp;quot;Helvetica Neue&amp;quot;, Helvetica, Arial, sans-serif, &amp;quot;Apple Color Emoji&amp;quot;, &amp;quot;Segoe UI Emoji&amp;quot;, &amp;quot;Segoe UI Symbol&amp;quot;; line-height: inherit; outline: 0px; text-decoration-line: none; padding-left: 0px; vertical-align: baseline; user-select: unset; padding-top: 0px !important; padding-right: 0px !important; padding-bottom: 0px !important;&quot; class=&quot;jmd__common-table-button--link&quot; title=&quot;exe_app_cust_boai_sales100_fence_archives_sum_d&quot; target=&quot;_blank&quot; href=&quot;http://dp.jd.com/buffalo/task/detail?env=prod&amp;amp;taskId=1596529&quot;&gt;exe_app_cust_boai_sales100_fence_archives_sum_d&lt;/a&gt;&lt;/div&gt;&lt;div&gt;目的表：&lt;span style=&quot;background-color: initial; color: rgb(96, 139, 78); font-family: Menlo, Monaco, &amp;quot;Courier New&amp;quot;, monospace; white-space: pre;&quot;&gt;app.&lt;/span&gt;&lt;span style=&quot;color: rgb(96, 139, 78); font-family: Menlo, Monaco, &amp;quot;Courier New&amp;quot;, monospace; white-space: pre;&quot;&gt;app_cust_boai_sales100_fence_archives_sum_d&lt;/span&gt;&lt;/div&gt;" style="rounded=1;whiteSpace=wrap;html=1;fontSize=14;align=left;spacingLeft=12;" parent="1" vertex="1">
          <mxGeometry x="-15" y="890" width="490" height="110" as="geometry" />
        </mxCell>
        <mxCell id="34ZQ5wmHYcVvmNUhHAbt-27" style="edgeStyle=orthogonalEdgeStyle;rounded=0;orthogonalLoop=1;jettySize=auto;html=1;entryX=1;entryY=0.5;entryDx=0;entryDy=0;exitX=0.5;exitY=1;exitDx=0;exitDy=0;" parent="1" source="34ZQ5wmHYcVvmNUhHAbt-26" target="34ZQ5wmHYcVvmNUhHAbt-16" edge="1">
          <mxGeometry relative="1" as="geometry">
            <Array as="points">
              <mxPoint x="630" y="660" />
              <mxPoint x="630" y="730" />
            </Array>
          </mxGeometry>
        </mxCell>
        <mxCell id="34ZQ5wmHYcVvmNUhHAbt-28" style="edgeStyle=orthogonalEdgeStyle;rounded=0;orthogonalLoop=1;jettySize=auto;html=1;entryX=0;entryY=0.5;entryDx=0;entryDy=0;exitX=0.5;exitY=1;exitDx=0;exitDy=0;" parent="1" source="34ZQ5wmHYcVvmNUhHAbt-26" target="34ZQ5wmHYcVvmNUhHAbt-19" edge="1">
          <mxGeometry relative="1" as="geometry">
            <Array as="points">
              <mxPoint x="750" y="660" />
              <mxPoint x="750" y="730" />
            </Array>
          </mxGeometry>
        </mxCell>
        <mxCell id="34ZQ5wmHYcVvmNUhHAbt-29" style="edgeStyle=orthogonalEdgeStyle;rounded=0;orthogonalLoop=1;jettySize=auto;html=1;" parent="1" source="34ZQ5wmHYcVvmNUhHAbt-26" edge="1">
          <mxGeometry relative="1" as="geometry">
            <mxPoint x="230" y="880" as="targetPoint" />
            <Array as="points">
              <mxPoint x="695" y="830" />
              <mxPoint x="231" y="830" />
            </Array>
          </mxGeometry>
        </mxCell>
        <mxCell id="34ZQ5wmHYcVvmNUhHAbt-26" value="&lt;div style=&quot;&quot;&gt;&lt;div style=&quot;color: rgb(212, 212, 212); font-family: Menlo, Monaco, &amp;quot;Courier New&amp;quot;, monospace; line-height: 21px; white-space: pre;&quot;&gt;&lt;span style=&quot;color: rgb(96, 139, 78);&quot;&gt;网格&lt;/span&gt;&lt;/div&gt;&lt;div style=&quot;font-family: Menlo, Monaco, &amp;quot;Courier New&amp;quot;, monospace; line-height: 21px; white-space: pre;&quot;&gt;&lt;div style=&quot;color: rgb(212, 212, 212); line-height: 21px;&quot;&gt;&lt;span style=&quot;color: rgb(206, 145, 120);&quot;&gt;dev.dev_wanggehua_shidian_46&lt;/span&gt;&lt;/div&gt;&lt;div style=&quot;color: rgb(212, 212, 212); line-height: 21px;&quot;&gt;&lt;span style=&quot;color: #ce9178;&quot;&gt;grid_code&lt;/span&gt;&lt;/div&gt;&lt;div style=&quot;color: rgb(212, 212, 212); line-height: 21px;&quot;&gt;&lt;span style=&quot;color: #ce9178;&quot;&gt;aoi_code&lt;/span&gt;&lt;/div&gt;&lt;div style=&quot;line-height: 21px;&quot;&gt;&lt;font style=&quot;&quot; color=&quot;#ce9178&quot;&gt;cover_radio&lt;/font&gt;&lt;/div&gt;&lt;/div&gt;&lt;/div&gt;&lt;div&gt;&lt;span style=&quot;color: rgba(0, 0, 0, 0); font-family: monospace; font-size: 0px; text-wrap-mode: nowrap;&quot;&gt;%3CmxGraphModel%3E%3Croot%3E%3CmxCell%20id%3D%220%22%2F%3E%3CmxCell%20id%3D%221%22%20parent%3D%220%22%2F%3E%3CmxCell%20id%3D%222%22%20value%3D%22%26lt%3Bdiv%20style%3D%26quot%3Btext-align%3A%20center%3B%26quot%3B%26gt%3B%26lt%3Bdiv%20style%3D%26quot%3Bcolor%3A%20rgb(212%2C%20212%2C%20212)%3B%20font-family%3A%20Menlo%2C%20Monaco%2C%20%26amp%3Bquot%3BCourier%20New%26amp%3Bquot%3B%2C%20monospace%3B%20line-height%3A%2021px%3B%20white-space%3A%20pre%3B%26quot%3B%26gt%3B%26lt%3Bspan%20style%3D%26quot%3Bcolor%3A%20rgb(96%2C%20139%2C%2078)%3B%26quot%3B%26gt%3B%E7%BD%91%E6%A0%BC%E8%AF%84%E5%88%86%26lt%3B%2Fspan%26gt%3B%26lt%3B%2Fdiv%26gt%3B%26lt%3B%2Fdiv%26gt%3B%26lt%3Bdiv%26gt%3B%E4%BB%BB%E5%8A%A1id%EF%BC%9A%26lt%3Bspan%20style%3D%26quot%3Bbackground-color%3A%20rgb(240%2C%20247%2C%20255)%3B%20color%3A%20rgba(29%2C%2033%2C%2041%2C%200.65)%3B%20font-family%3A%20-apple-system%2C%20%26amp%3Bquot%3Bsystem-ui%26amp%3Bquot%3B%2C%20%26amp%3Bquot%3BSegoe%20UI%26amp%3Bquot%3B%2C%20%26amp%3Bquot%3BPingFang%20SC%26amp%3Bquot%3B%2C%20%26amp%3Bquot%3BHiragino%20Sans%20GB%26amp%3Bquot%3B%2C%20%26amp%3Bquot%3BMicrosoft%20YaHei%26amp%3Bquot%3B%2C%20%26amp%3Bquot%3BHelvetica%20Neue%26amp%3Bquot%3B%2C%20Helvetica%2C%20Arial%2C%20sans-serif%2C%20%26amp%3Bquot%3BApple%20Color%20Emoji%26amp%3Bquot%3B%2C%20%26amp%3Bquot%3BSegoe%20UI%20Emoji%26amp%3Bquot%3B%2C%20%26amp%3Bquot%3BSegoe%20UI%20Symbol%26amp%3Bquot%3B%3B%20text-wrap-mode%3A%20nowrap%3B%26quot%3B%26gt%3B1598835%26lt%3B%2Fspan%26gt%3B%26lt%3B%2Fdiv%26gt%3B%26lt%3Bdiv%26gt%3B%E4%BB%BB%E5%8A%A1%E5%90%8D%E7%A7%B0%EF%BC%9A%26lt%3Ba%20style%3D%26quot%3Btext-wrap-mode%3A%20nowrap%3B%20box-sizing%3A%20border-box%3B%20background-color%3A%20rgba(29%2C%2033%2C%2041%2C%200.02)%3B%20cursor%3A%20pointer%3B%20transition%3A%20color%200.3s%3B%20touch-action%3A%20manipulation%3B%20font-family%3A%20-apple-system%2C%20%26amp%3Bquot%3Bsystem-ui%26amp%3Bquot%3B%2C%20%26amp%3Bquot%3BSegoe%20UI%26amp%3Bquot%3B%2C%20%26amp%3Bquot%3BPingFang%20SC%26amp%3Bquot%3B%2C%20%26amp%3Bquot%3BHiragino%20Sans%20GB%26amp%3Bquot%3B%2C%20%26amp%3Bquot%3BMicrosoft%20YaHei%26amp%3Bquot%3B%2C%20%26amp%3Bquot%3BHelvetica%20Neue%26amp%3Bquot%3B%2C%20Helvetica%2C%20Arial%2C%20sans-serif%2C%20%26amp%3Bquot%3BApple%20Color%20Emoji%26amp%3Bquot%3B%2C%20%26amp%3Bquot%3BSegoe%20UI%20Emoji%26amp%3Bquot%3B%2C%20%26amp%3Bquot%3BSegoe%20UI%20Symbol%26amp%3Bquot%3B%3B%20line-height%3A%20inherit%3B%20outline%3A%200px%3B%20text-decoration-line%3A%20none%3B%20padding-left%3A%200px%3B%20vertical-align%3A%20baseline%3B%20user-select%3A%20unset%3B%20padding-top%3A%200px%20!important%3B%20padding-right%3A%200px%20!important%3B%20padding-bottom%3A%200px%20!important%3B%26quot%3B%20class%3D%26quot%3Bjmd__common-table-button--link%26quot%3B%20title%3D%26quot%3Bexe_app_cust_boai_sales100_waybill_score_sum_d%26quot%3B%20target%3D%26quot%3B_blank%26quot%3B%20href%3D%26quot%3Bhttp%3A%2F%2Fdp.jd.com%2Fbuffalo%2Ftask%2Fdetail%3Fenv%3Dprod%26amp%3Bamp%3BtaskId%3D1598835%26quot%3B%26gt%3Bexe_app_cust_boai_sales100_waybill_score_sum_d%26lt%3B%2Fa%26gt%3B%26lt%3B%2Fdiv%26gt%3B%26lt%3Bdiv%26gt%3B%E7%9B%AE%E7%9A%84%E8%A1%A8%EF%BC%9A%26lt%3B%2Fdiv%26gt%3B%26lt%3Bdiv%26gt%3B%26lt%3Bspan%20style%3D%26quot%3Bcolor%3A%20rgb(96%2C%20139%2C%2078)%3B%20font-family%3A%20Menlo%2C%20Monaco%2C%20%26amp%3Bquot%3BCourier%20New%26amp%3Bquot%3B%2C%20monospace%3B%20white-space%3A%20pre%3B%26quot%3B%26gt%3B1%E3%80%81app.%26lt%3B%2Fspan%26gt%3B%26lt%3Bspan%20style%3D%26quot%3Bcolor%3A%20rgb(96%2C%20139%2C%2078)%3B%20font-family%3A%20Menlo%2C%20Monaco%2C%20%26amp%3Bquot%3BCourier%20New%26amp%3Bquot%3B%2C%20monospace%3B%20white-space%3A%20pre%3B%26quot%3B%26gt%3Bapp_cust_boai_sales100_waybill_score_sum_d%26lt%3B%2Fspan%26gt%3B%26lt%3B%2Fdiv%26gt%3B%26lt%3Bdiv%26gt%3B%26lt%3Bdiv%20style%3D%26quot%3Bcolor%3A%20rgb(212%2C%20212%2C%20212)%3B%20font-family%3A%20Menlo%2C%20Monaco%2C%20%26amp%3Bquot%3BCourier%20New%26amp%3Bquot%3B%2C%20monospace%3B%20line-height%3A%2021px%3B%20white-space%3A%20pre%3B%26quot%3B%26gt%3B%26lt%3Bspan%20style%3D%26quot%3Bcolor%3A%20rgb(206%2C%20145%2C%20120)%3B%26quot%3B%26gt%3B2%E3%80%81app.app_cust_boai_sales100_waybill_score_result_sum_d%26lt%3B%2Fspan%26gt%3B%26lt%3B%2Fdiv%26gt%3B%26lt%3B%2Fdiv%26gt%3B%22%20style%3D%22rounded%3D1%3BwhiteSpace%3Dwrap%3Bhtml%3D1%3BfontSize%3D14%3Balign%3Dleft%3BspacingLeft%3D12%3B%22%20vertex%3D%221%22%20parent%3D%221%22%3E%3CmxGeometry%20x%3D%22-20%22%20y%3D%22660%22%20width%3D%22500%22%20height%3D%22140%22%20as%3D%22geometry%22%2F%3E%3C%2FmxCell%3E%3C%2Froot%3E%3C%2FmxGraphModel%3E&lt;/span&gt;&lt;/div&gt;" style="rounded=1;whiteSpace=wrap;html=1;fontSize=14;align=left;spacingLeft=12;" parent="1" vertex="1">
          <mxGeometry x="550" y="520" width="290" height="140" as="geometry" />
        </mxCell>
      </root>
    </mxGraphModel>
  </diagram>
</mxfile>
